<svg xmlns="http://www.w3.org/2000/svg" viewBox="0 0 1280 800" width="1280" height="800">
  <defs>
    <linearGradient id="chrome" x1="0" y1="0" x2="0" y2="1">
      <stop offset="0%" stop-color="#D4CFC6"/>
      <stop offset="100%" stop-color="#DED9D0"/>
    </linearGradient>
  </defs>
  <rect width="1280" height="800" fill="#E8E5DF"/>
  <!-- Title bar -->
  <rect width="1280" height="40" fill="url(#chrome)"/>
  <line x1="0" y1="0" x2="1280" y2="0" stroke="#ffffff" stroke-width="2"/>
  <line x1="0" y1="0" x2="0" y2="40" stroke="#ffffff" stroke-width="2"/>
  <line x1="0" y1="39" x2="1280" y2="39" stroke="#808080" stroke-width="1"/>
  <circle cx="20" cy="20" r="6" fill="#FF5F57"/>
  <circle cx="40" cy="20" r="6" fill="#FEBC2E"/>
  <circle cx="60" cy="20" r="6" fill="#28C840"/>
  <text x="640" y="26" text-anchor="middle" font-family="'JetBrains Mono', monospace" font-size="13" fill="#2C3040" font-weight="600">&gt; gitty — Commit</text>
  <!-- Tab bar -->
  <rect y="40" width="1280" height="36" fill="#DED9D0"/>
  <line x1="0" y1="75" x2="1280" y2="75" stroke="#C8C3B8" stroke-width="1"/>
  <rect x="8" y="43" width="110" height="30" rx="2" fill="#E8E5DF"/>
  <rect x="8" y="43" width="110" height="3" fill="#4040B0"/>
  <text x="63" y="63" text-anchor="middle" font-family="monospace" font-size="11" fill="#2C3040">Changes</text>
  <text x="171" y="63" text-anchor="middle" font-family="monospace" font-size="11" fill="#686C7C">History</text>
  <text x="269" y="63" text-anchor="middle" font-family="monospace" font-size="11" fill="#686C7C">Branches</text>
  <!-- Left panel: staged files summary -->
  <rect x="0" y="76" width="300" height="700" fill="#DED9D0"/>
  <line x1="300" y1="76" x2="300" y2="776" stroke="#C8C3B8" stroke-width="1"/>
  <rect x="0" y="76" width="300" height="32" fill="#D4CFC6"/>
  <text x="12" y="97" font-family="monospace" font-size="11" fill="#1E8C0A" font-weight="700">STAGED (4)</text>
  <rect x="0" y="108" width="300" height="30" fill="#E8E5DF"/>
  <text x="12" y="127" font-family="monospace" font-size="10" fill="#2C3040">M  index.php</text>
  <rect x="0" y="138" width="300" height="30" fill="#DED9D0"/>
  <text x="12" y="157" font-family="monospace" font-size="10" fill="#2C3040">M  style.css</text>
  <rect x="0" y="168" width="300" height="30" fill="#E8E5DF"/>
  <text x="12" y="187" font-family="monospace" font-size="10" fill="#2C3040">M  config.json</text>
  <rect x="0" y="198" width="300" height="30" fill="#DED9D0"/>
  <text x="12" y="217" font-family="monospace" font-size="10" fill="#1E8C0A">A  auth.php</text>
  <!-- Stats -->
  <rect x="0" y="250" width="300" height="52" fill="#E8E5DF"/>
  <text x="12" y="270" font-family="monospace" font-size="10" fill="#686C7C">Total changes:</text>
  <text x="12" y="288" font-family="monospace" font-size="11" fill="#1E8C0A" font-weight="600">+63 lines</text>
  <text x="100" y="288" font-family="monospace" font-size="11" fill="#D91440" font-weight="600">−17 lines</text>
  <!-- Right panel: commit form -->
  <rect x="301" y="76" width="979" height="700" fill="#E8E5DF"/>
  <!-- Conventional commit type dropdown -->
  <text x="320" y="116" font-family="monospace" font-size="11" fill="#4A4E5E" font-weight="600">TYPE</text>
  <rect x="320" y="124" width="180" height="32" fill="#DED9D0" rx="2"/>
  <rect x="320" y="124" width="180" height="32" rx="2" stroke="#C8C3B8" stroke-width="1" fill="none"/>
  <text x="335" y="145" font-family="monospace" font-size="11" fill="#4040B0" font-weight="600">feat</text>
  <text x="488" y="145" text-anchor="end" font-family="monospace" font-size="11" fill="#686C7C">▾</text>
  <text x="520" y="116" font-family="monospace" font-size="11" fill="#4A4E5E" font-weight="600">SCOPE</text>
  <rect x="520" y="124" width="180" height="32" fill="#DED9D0" rx="2" stroke="#C8C3B8" stroke-width="1"/>
  <text x="535" y="145" font-family="monospace" font-size="11" fill="#2C3040">auth</text>
  <text x="720" y="116" font-family="monospace" font-size="11" fill="#4A4E5E" font-weight="600">BREAKING</text>
  <rect x="720" y="126" width="28" height="28" fill="#DED9D0" rx="2" stroke="#C8C3B8" stroke-width="1"/>
  <!-- Commit message area -->
  <text x="320" y="186" font-family="monospace" font-size="11" fill="#4A4E5E" font-weight="600">COMMIT MESSAGE</text>
  <rect x="320" y="194" width="920" height="48" fill="#DED9D0" rx="2"/>
  <rect x="320" y="194" width="920" height="48" rx="2" stroke="#4040B0" stroke-width="2" fill="none"/>
  <text x="335" y="213" font-family="monospace" font-size="13" fill="#2C3040" font-weight="600">feat(auth): add JWT token validation middleware</text>
  <!-- cursor blink -->
  <rect x="800" y="207" width="2" height="14" fill="#4040B0"/>
  <text x="320" y="262" font-family="monospace" font-size="11" fill="#4A4E5E" font-weight="600">DESCRIPTION (optional)</text>
  <rect x="320" y="270" width="920" height="120" fill="#DED9D0" rx="2" stroke="#C8C3B8" stroke-width="1"/>
  <text x="335" y="292" font-family="monospace" font-size="11" fill="#686C7C">Validates JWT tokens from Authorization header before</text>
  <text x="335" y="310" font-family="monospace" font-size="11" fill="#686C7C">processing requests. Returns 401 if token is missing or</text>
  <text x="335" y="328" font-family="monospace" font-size="11" fill="#686C7C">invalid. Works with the new session store (see auth.php).</text>
  <!-- Preview -->
  <text x="320" y="420" font-family="monospace" font-size="11" fill="#4A4E5E" font-weight="600">PREVIEW</text>
  <rect x="320" y="428" width="920" height="60" fill="#D4CFC6" rx="2"/>
  <text x="335" y="450" font-family="monospace" font-size="12" fill="#4040B0" font-weight="600">feat(auth): add JWT token validation middleware</text>
  <text x="335" y="470" font-family="monospace" font-size="10" fill="#686C7C">Validates JWT tokens from Authorization header before processing requests...</text>
  <!-- Commit button -->
  <rect x="320" y="514" width="240" height="44" fill="#4040B0" rx="2"/>
  <rect x="320" y="514" width="240" height="44" rx="2" stroke="#ffffff" stroke-width="1" fill="none" opacity="0.3"/>
  <text x="440" y="541" text-anchor="middle" font-family="monospace" font-size="14" fill="#ffffff" font-weight="600">Commit (⌘ Enter)</text>
  <rect x="576" y="514" width="160" height="44" fill="#DED9D0" rx="2" stroke="#808080" stroke-width="1"/>
  <text x="656" y="541" text-anchor="middle" font-family="monospace" font-size="12" fill="#2C3040">Amend Last</text>
  <!-- Amend last commit info -->
  <rect x="320" y="572" width="920" height="52" fill="#DED9D0" rx="2"/>
  <text x="335" y="594" font-family="monospace" font-size="10" fill="#686C7C">Last commit:</text>
  <text x="335" y="612" font-family="monospace" font-size="11" fill="#2C3040">chore: update dependencies — 45 minutes ago • a3f2b1c</text>
  <!-- Status bar -->
  <rect x="0" y="776" width="1280" height="24" fill="#4040B0"/>
  <text x="12" y="792" font-family="monospace" font-size="10" fill="#ffffff">main</text>
  <text x="70" y="792" font-family="monospace" font-size="10" fill="rgba(255,255,255,0.7)">↑2 ↓0 • 4 staged files</text>
  <!-- PLACEHOLDER watermark -->
  <text x="790" y="560" text-anchor="middle" dominant-baseline="middle" font-family="monospace" font-size="72" font-weight="bold" fill="#C8C3B8" opacity="0.20" transform="rotate(-20 790 560)">PLACEHOLDER</text>
</svg>
