<svg xmlns="http://www.w3.org/2000/svg" viewBox="0 0 1280 800" width="1280" height="800">
  <defs>
    <linearGradient id="chrome" x1="0" y1="0" x2="0" y2="1">
      <stop offset="0%" stop-color="#D4CFC6"/>
      <stop offset="100%" stop-color="#DED9D0"/>
    </linearGradient>
  </defs>
  <rect width="1280" height="800" fill="#E8E5DF"/>
  <!-- Title bar -->
  <rect width="1280" height="40" fill="url(#chrome)"/>
  <line x1="0" y1="0" x2="1280" y2="0" stroke="#ffffff" stroke-width="2"/>
  <line x1="0" y1="0" x2="0" y2="40" stroke="#ffffff" stroke-width="2"/>
  <line x1="0" y1="39" x2="1280" y2="39" stroke="#808080" stroke-width="1"/>
  <circle cx="20" cy="20" r="6" fill="#FF5F57"/>
  <circle cx="40" cy="20" r="6" fill="#FEBC2E"/>
  <circle cx="60" cy="20" r="6" fill="#28C840"/>
  <text x="640" y="26" text-anchor="middle" font-family="'JetBrains Mono', monospace" font-size="13" fill="#2C3040" font-weight="600">&gt; gitty — Interactive Rebase</text>
  <!-- Tab bar -->
  <rect y="40" width="1280" height="36" fill="#DED9D0"/>
  <line x1="0" y1="75" x2="1280" y2="75" stroke="#C8C3B8" stroke-width="1"/>
  <rect x="116" y="43" width="110" height="30" rx="2" fill="#E8E5DF"/>
  <rect x="116" y="43" width="110" height="3" fill="#4040B0"/>
  <text x="171" y="63" text-anchor="middle" font-family="monospace" font-size="11" fill="#2C3040">History</text>
  <!-- Rebase header banner -->
  <rect x="0" y="76" width="1280" height="56" fill="#4040B0"/>
  <text x="640" y="100" text-anchor="middle" font-family="monospace" font-size="14" fill="#ffffff" font-weight="700">Interactive Rebase — feature/auth onto main</text>
  <text x="640" y="120" text-anchor="middle" font-family="monospace" font-size="11" fill="rgba(255,255,255,0.8)">Drag to reorder • Click action to change • 5 commits selected</text>
  <!-- Column headers -->
  <rect x="0" y="132" width="1280" height="28" fill="#D4CFC6"/>
  <text x="32" y="150" font-family="monospace" font-size="10" fill="#686C7C" font-weight="600">ACTION</text>
  <text x="200" y="150" font-family="monospace" font-size="10" fill="#686C7C" font-weight="600">HASH</text>
  <text x="310" y="150" font-family="monospace" font-size="10" fill="#686C7C" font-weight="600">COMMIT MESSAGE</text>
  <text x="1100" y="150" text-anchor="end" font-family="monospace" font-size="10" fill="#686C7C" font-weight="600">AUTHOR</text>
  <!-- Commit row 1: pick -->
  <rect x="0" y="160" width="1280" height="52" fill="#E8E5DF"/>
  <line x1="0" y1="211" x2="1280" y2="211" stroke="#C8C3B8" stroke-width="1"/>
  <text x="20" y="176" font-family="monospace" font-size="10" fill="#686C7C">⠿</text>
  <rect x="36" y="167" width="100" height="26" fill="#1E8C0A" rx="2"/>
  <text x="86" y="184" text-anchor="middle" font-family="monospace" font-size="10" fill="#ffffff" font-weight="600">pick ▾</text>
  <text x="200" y="184" font-family="monospace" font-size="10" fill="#686C7C">a3f2b1c</text>
  <text x="310" y="178" font-family="monospace" font-size="12" fill="#2C3040" font-weight="600">feat(auth): add JWT token validation middleware</text>
  <text x="310" y="198" font-family="monospace" font-size="10" fill="#686C7C">most recent</text>
  <text x="1100" y="184" text-anchor="end" font-family="monospace" font-size="10" fill="#4A4E5E">philipp</text>
  <!-- Commit row 2: squash -->
  <rect x="0" y="212" width="1280" height="52" fill="#DED9D0"/>
  <line x1="0" y1="263" x2="1280" y2="263" stroke="#C8C3B8" stroke-width="1"/>
  <text x="20" y="228" font-family="monospace" font-size="10" fill="#686C7C">⠿</text>
  <rect x="36" y="219" width="100" height="26" fill="#C08800" rx="2"/>
  <text x="86" y="236" text-anchor="middle" font-family="monospace" font-size="10" fill="#ffffff" font-weight="600">squash ▾</text>
  <text x="200" y="236" font-family="monospace" font-size="10" fill="#686C7C">b8e9d4a</text>
  <text x="310" y="230" font-family="monospace" font-size="12" fill="#2C3040">feat(auth): create user session store</text>
  <text x="310" y="248" font-family="monospace" font-size="10" fill="#686C7C">will be squashed into previous</text>
  <text x="1100" y="236" text-anchor="end" font-family="monospace" font-size="10" fill="#4A4E5E">philipp</text>
  <!-- Commit row 3: pick -->
  <rect x="0" y="264" width="1280" height="52" fill="#E8E5DF"/>
  <line x1="0" y1="315" x2="1280" y2="315" stroke="#C8C3B8" stroke-width="1"/>
  <text x="20" y="280" font-family="monospace" font-size="10" fill="#686C7C">⠿</text>
  <rect x="36" y="271" width="100" height="26" fill="#1E8C0A" rx="2"/>
  <text x="86" y="288" text-anchor="middle" font-family="monospace" font-size="10" fill="#ffffff" font-weight="600">pick ▾</text>
  <text x="200" y="288" font-family="monospace" font-size="10" fill="#686C7C">c1d7e2f</text>
  <text x="310" y="282" font-family="monospace" font-size="12" fill="#2C3040">feat(auth): scaffold authentication routes</text>
  <text x="1100" y="288" text-anchor="end" font-family="monospace" font-size="10" fill="#4A4E5E">philipp</text>
  <!-- Commit row 4: fixup -->
  <rect x="0" y="316" width="1280" height="52" fill="#DED9D0"/>
  <line x1="0" y1="367" x2="1280" y2="367" stroke="#C8C3B8" stroke-width="1"/>
  <text x="20" y="332" font-family="monospace" font-size="10" fill="#686C7C">⠿</text>
  <rect x="36" y="323" width="100" height="26" fill="#4A4E5E" rx="2"/>
  <text x="86" y="340" text-anchor="middle" font-family="monospace" font-size="10" fill="#ffffff" font-weight="600">fixup ▾</text>
  <text x="200" y="340" font-family="monospace" font-size="10" fill="#686C7C">d4f8a3b</text>
  <text x="310" y="334" font-family="monospace" font-size="12" fill="#2C3040">wip: fix typo in auth.php</text>
  <text x="310" y="352" font-family="monospace" font-size="10" fill="#686C7C">message will be discarded</text>
  <text x="1100" y="340" text-anchor="end" font-family="monospace" font-size="10" fill="#4A4E5E">philipp</text>
  <!-- Commit row 5: drop -->
  <rect x="0" y="368" width="1280" height="52" fill="#E8E5DF"/>
  <line x1="0" y1="419" x2="1280" y2="419" stroke="#C8C3B8" stroke-width="1"/>
  <text x="20" y="384" font-family="monospace" font-size="10" fill="#686C7C">⠿</text>
  <rect x="36" y="375" width="100" height="26" fill="#D91440" rx="2"/>
  <text x="86" y="392" text-anchor="middle" font-family="monospace" font-size="10" fill="#ffffff" font-weight="600">drop ▾</text>
  <text x="200" y="392" font-family="monospace" font-size="10" fill="#686C7C">e5a2c9d</text>
  <text x="310" y="386" font-family="monospace" font-size="12" fill="#686C7C" text-decoration="line-through">debug: log all requests temporarily</text>
  <text x="310" y="404" font-family="monospace" font-size="10" fill="#D91440">will be dropped</text>
  <text x="1100" y="392" text-anchor="end" font-family="monospace" font-size="10" fill="#686C7C">philipp</text>
  <!-- Rebase onto info -->
  <rect x="0" y="430" width="1280" height="40" fill="#D4CFC6"/>
  <line x1="0" y1="430" x2="1280" y2="430" stroke="#C8C3B8" stroke-width="1"/>
  <text x="20" y="455" font-family="monospace" font-size="11" fill="#686C7C">Rebasing onto:</text>
  <rect x="130" y="437" width="80" height="22" fill="#4040B0" rx="10"/>
  <text x="170" y="452" text-anchor="middle" font-family="monospace" font-size="9" fill="#ffffff">main</text>
  <text x="225" y="455" font-family="monospace" font-size="10" fill="#686C7C">a3f2b1c — chore: update dependencies</text>
  <!-- Action buttons -->
  <rect x="0" y="740" width="1280" height="36" fill="#D4CFC6"/>
  <line x1="0" y1="740" x2="1280" y2="740" stroke="#C8C3B8" stroke-width="1"/>
  <rect x="20" y="748" width="180" height="22" fill="#4040B0" rx="2"/>
  <text x="110" y="763" text-anchor="middle" font-family="monospace" font-size="10" fill="#ffffff" font-weight="600">Start Rebase (⌘R)</text>
  <rect x="212" y="748" width="120" height="22" fill="#DED9D0" rx="2" stroke="#808080" stroke-width="1"/>
  <text x="272" y="763" text-anchor="middle" font-family="monospace" font-size="10" fill="#2C3040">Cancel</text>
  <text x="1260" y="763" text-anchor="end" font-family="monospace" font-size="10" fill="#686C7C">2 pick  1 squash  1 fixup  1 drop</text>
  <!-- Status bar -->
  <rect x="0" y="776" width="1280" height="24" fill="#C08800"/>
  <text x="12" y="792" font-family="monospace" font-size="10" fill="#ffffff">REBASING feature/auth</text>
  <!-- PLACEHOLDER watermark -->
  <text x="640" y="590" text-anchor="middle" dominant-baseline="middle" font-family="monospace" font-size="72" font-weight="bold" fill="#C8C3B8" opacity="0.20" transform="rotate(-20 640 590)">PLACEHOLDER</text>
</svg>
