<svg xmlns="http://www.w3.org/2000/svg" viewBox="0 0 1280 800" width="1280" height="800">
  <defs>
    <linearGradient id="chrome" x1="0" y1="0" x2="0" y2="1">
      <stop offset="0%" stop-color="#D4CFC6"/>
      <stop offset="100%" stop-color="#DED9D0"/>
    </linearGradient>
  </defs>
  <rect width="1280" height="800" fill="#E8E5DF"/>
  <!-- Title bar -->
  <rect width="1280" height="40" fill="url(#chrome)"/>
  <line x1="0" y1="0" x2="1280" y2="0" stroke="#ffffff" stroke-width="2"/>
  <line x1="0" y1="0" x2="0" y2="40" stroke="#ffffff" stroke-width="2"/>
  <line x1="0" y1="39" x2="1280" y2="39" stroke="#808080" stroke-width="1"/>
  <circle cx="20" cy="20" r="6" fill="#FF5F57"/>
  <circle cx="40" cy="20" r="6" fill="#FEBC2E"/>
  <circle cx="60" cy="20" r="6" fill="#28C840"/>
  <text x="640" y="26" text-anchor="middle" font-family="'JetBrains Mono', monospace" font-size="13" fill="#2C3040" font-weight="600">&gt; gitty — Git Blame</text>
  <!-- Tab bar -->
  <rect y="40" width="1280" height="36" fill="#DED9D0"/>
  <line x1="0" y1="75" x2="1280" y2="75" stroke="#C8C3B8" stroke-width="1"/>
  <rect x="116" y="43" width="110" height="30" rx="2" fill="#E8E5DF"/>
  <rect x="116" y="43" width="110" height="3" fill="#4040B0"/>
  <text x="171" y="63" text-anchor="middle" font-family="monospace" font-size="11" fill="#2C3040">History</text>
  <!-- File header bar -->
  <rect x="0" y="76" width="1280" height="40" fill="#D4CFC6"/>
  <line x1="0" y1="115" x2="1280" y2="115" stroke="#C8C3B8" stroke-width="1"/>
  <text x="20" y="100" font-family="monospace" font-size="12" fill="#4040B0" font-weight="600">app.js</text>
  <text x="90" y="100" font-family="monospace" font-size="11" fill="#686C7C">blame view  •  143 lines</text>
  <rect x="1100" y="83" width="80" height="22" fill="#DED9D0" rx="2" stroke="#C8C3B8" stroke-width="1"/>
  <text x="1140" y="98" text-anchor="middle" font-family="monospace" font-size="9" fill="#2C3040">Hide Blame</text>
  <rect x="1190" y="83" width="70" height="22" fill="#DED9D0" rx="2" stroke="#C8C3B8" stroke-width="1"/>
  <text x="1225" y="98" text-anchor="middle" font-family="monospace" font-size="9" fill="#2C3040">Raw Diff</text>
  <!-- Blame annotation column -->
  <rect x="0" y="116" width="280" height="660" fill="#D4CFC6"/>
  <line x1="280" y1="116" x2="280" y2="776" stroke="#C8C3B8" stroke-width="1"/>
  <!-- Line number column -->
  <rect x="280" y="116" width="48" height="660" fill="#D4CFC6"/>
  <line x1="328" y1="116" x2="328" y2="776" stroke="#C8C3B8" stroke-width="1"/>
  <!-- Code area -->
  <rect x="329" y="116" width="951" height="660" fill="#E8E5DF"/>
  <!-- Blame + code rows -->
  <!-- Row 1 -->
  <rect x="0" y="116" width="280" height="20" fill="rgba(64,64,176,0.08)"/>
  <text x="8" y="130" font-family="monospace" font-size="9" fill="#686C7C">a3f2b1c  philipp</text>
  <text x="268" y="130" text-anchor="end" font-family="monospace" font-size="9" fill="#686C7C">45m ago</text>
  <text x="304" y="130" text-anchor="middle" font-family="monospace" font-size="9" fill="#686C7C">1</text>
  <text x="340" y="130" font-family="monospace" font-size="11" fill="#4040B0">const</text>
  <text x="390" y="130" font-family="monospace" font-size="11" fill="#2C3040"> express = require(</text>
  <text x="556" y="130" font-family="monospace" font-size="11" fill="#1E8C0A">'express'</text>
  <text x="616" y="130" font-family="monospace" font-size="11" fill="#2C3040">);</text>
  <!-- Row 2 -->
  <text x="304" y="150" text-anchor="middle" font-family="monospace" font-size="9" fill="#686C7C">2</text>
  <!-- Row 3 -->
  <rect x="0" y="156" width="280" height="20" fill="rgba(64,64,176,0.08)"/>
  <text x="8" y="170" font-family="monospace" font-size="9" fill="#686C7C">c8e4f2a  philipp</text>
  <text x="268" y="170" text-anchor="end" font-family="monospace" font-size="9" fill="#686C7C">3h ago</text>
  <text x="304" y="170" text-anchor="middle" font-family="monospace" font-size="9" fill="#686C7C">3</text>
  <text x="340" y="170" font-family="monospace" font-size="11" fill="#4040B0">const</text>
  <text x="390" y="170" font-family="monospace" font-size="11" fill="#2C3040"> router = express.Router();</text>
  <!-- Row 4 - blank -->
  <text x="304" y="190" text-anchor="middle" font-family="monospace" font-size="9" fill="#686C7C">4</text>
  <!-- Row 5: highlighted / selected line -->
  <rect x="0" y="196" width="1280" height="20" fill="rgba(64,64,176,0.15)"/>
  <rect x="0" y="196" width="4" height="20" fill="#4040B0"/>
  <text x="8" y="210" font-family="monospace" font-size="9" fill="#4040B0" font-weight="600">a3f2b1c  philipp</text>
  <text x="268" y="210" text-anchor="end" font-family="monospace" font-size="9" fill="#4040B0" font-weight="600">45m ago</text>
  <text x="304" y="210" text-anchor="middle" font-family="monospace" font-size="9" fill="#4040B0" font-weight="600">5</text>
  <text x="340" y="210" font-family="monospace" font-size="11" fill="#2C3040">router.get(</text>
  <text x="424" y="210" font-family="monospace" font-size="11" fill="#1E8C0A">'/api/v2/user'</text>
  <text x="558" y="210" font-family="monospace" font-size="11" fill="#2C3040">, async (req, res) =&gt; {</text>
  <!-- Row 6 -->
  <rect x="0" y="216" width="280" height="20" fill="rgba(64,64,176,0.08)"/>
  <text x="304" y="230" text-anchor="middle" font-family="monospace" font-size="9" fill="#686C7C">6</text>
  <text x="340" y="230" font-family="monospace" font-size="11" fill="#4040B0">  const</text>
  <text x="398" y="230" font-family="monospace" font-size="11" fill="#2C3040"> { id, token } = req.headers;</text>
  <!-- Row 7 -->
  <rect x="0" y="236" width="280" height="20" fill="rgba(64,64,176,0.08)"/>
  <text x="304" y="250" text-anchor="middle" font-family="monospace" font-size="9" fill="#686C7C">7</text>
  <text x="340" y="250" font-family="monospace" font-size="11" fill="#4040B0">  if</text>
  <text x="364" y="250" font-family="monospace" font-size="11" fill="#2C3040"> (!token) </text>
  <text x="440" y="250" font-family="monospace" font-size="11" fill="#4040B0">return</text>
  <text x="490" y="250" font-family="monospace" font-size="11" fill="#2C3040"> res.status(401).json({ error: </text>
  <text x="720" y="250" font-family="monospace" font-size="11" fill="#1E8C0A">'Unauthorized'</text>
  <text x="830" y="250" font-family="monospace" font-size="11" fill="#2C3040"> });</text>
  <!-- Row 8 -->
  <rect x="0" y="256" width="280" height="20" fill="rgba(30,140,10,0.06)"/>
  <text x="8" y="270" font-family="monospace" font-size="9" fill="#686C7C">d2b1a4c  philipp</text>
  <text x="268" y="270" text-anchor="end" font-family="monospace" font-size="9" fill="#686C7C">4h ago</text>
  <text x="304" y="270" text-anchor="middle" font-family="monospace" font-size="9" fill="#686C7C">8</text>
  <text x="340" y="270" font-family="monospace" font-size="11" fill="#4040B0">  try</text>
  <text x="378" y="270" font-family="monospace" font-size="11" fill="#2C3040"> {</text>
  <!-- Row 9 -->
  <rect x="0" y="276" width="280" height="20" fill="rgba(30,140,10,0.06)"/>
  <text x="304" y="290" text-anchor="middle" font-family="monospace" font-size="9" fill="#686C7C">9</text>
  <text x="340" y="290" font-family="monospace" font-size="11" fill="#4040B0">    const</text>
  <text x="408" y="290" font-family="monospace" font-size="11" fill="#2C3040"> user = await db.users.findById(id);</text>
  <!-- Row 10 -->
  <rect x="0" y="296" width="280" height="20" fill="rgba(30,140,10,0.06)"/>
  <text x="304" y="310" text-anchor="middle" font-family="monospace" font-size="9" fill="#686C7C">10</text>
  <text x="340" y="310" font-family="monospace" font-size="11" fill="#2C3040">    res.json({ user, version: </text>
  <text x="550" y="310" font-family="monospace" font-size="11" fill="#1E8C0A">'v2'</text>
  <text x="584" y="310" font-family="monospace" font-size="11" fill="#2C3040"> });</text>
  <!-- Rows 11+ (repeat pattern) -->
  <rect x="0" y="316" width="280" height="20" fill="rgba(30,140,10,0.06)"/>
  <text x="304" y="330" text-anchor="middle" font-family="monospace" font-size="9" fill="#686C7C">11</text>
  <text x="340" y="330" font-family="monospace" font-size="11" fill="#2C3040">  } catch (err) {</text>
  <rect x="0" y="336" width="280" height="20" fill="rgba(30,140,10,0.06)"/>
  <text x="304" y="350" text-anchor="middle" font-family="monospace" font-size="9" fill="#686C7C">12</text>
  <text x="340" y="350" font-family="monospace" font-size="11" fill="#2C3040">    next(err);</text>
  <rect x="0" y="356" width="280" height="20" fill="rgba(30,140,10,0.06)"/>
  <text x="304" y="370" text-anchor="middle" font-family="monospace" font-size="9" fill="#686C7C">13</text>
  <text x="340" y="370" font-family="monospace" font-size="11" fill="#2C3040">  }</text>
  <rect x="0" y="376" width="280" height="20" fill="rgba(30,140,10,0.06)"/>
  <text x="304" y="390" text-anchor="middle" font-family="monospace" font-size="9" fill="#686C7C">14</text>
  <text x="340" y="390" font-family="monospace" font-size="11" fill="#2C3040">});</text>
  <!-- Inline commit tooltip -->
  <rect x="340" y="220" width="380" height="90" fill="#2C3040" rx="3"/>
  <rect x="340" y="220" width="380" height="90" rx="3" stroke="#4040B0" stroke-width="1.5" fill="none"/>
  <text x="356" y="238" font-family="monospace" font-size="10" fill="#4040B0" font-weight="600">a3f2b1c</text>
  <text x="420" y="238" font-family="monospace" font-size="10" fill="rgba(255,255,255,0.6)">45 minutes ago</text>
  <text x="356" y="255" font-family="monospace" font-size="11" fill="#ffffff" font-weight="600">feat(auth): add JWT token validation</text>
  <text x="356" y="272" font-family="monospace" font-size="10" fill="rgba(255,255,255,0.7)">philipp &lt;philipp@example.com&gt;</text>
  <text x="356" y="289" font-family="monospace" font-size="10" fill="#4040B0">View commit diff →</text>
  <!-- Status bar -->
  <rect x="0" y="776" width="1280" height="24" fill="#4040B0"/>
  <text x="12" y="792" font-family="monospace" font-size="10" fill="#ffffff">main</text>
  <text x="70" y="792" font-family="monospace" font-size="10" fill="rgba(255,255,255,0.7)">blame: app.js • line 5</text>
  <!-- PLACEHOLDER watermark -->
  <text x="790" y="560" text-anchor="middle" dominant-baseline="middle" font-family="monospace" font-size="72" font-weight="bold" fill="#C8C3B8" opacity="0.20" transform="rotate(-20 790 560)">PLACEHOLDER</text>
</svg>
