<svg xmlns="http://www.w3.org/2000/svg" viewBox="0 0 1280 800" width="1280" height="800">
  <defs>
    <linearGradient id="chrome" x1="0" y1="0" x2="0" y2="1">
      <stop offset="0%" stop-color="#D4CFC6"/>
      <stop offset="100%" stop-color="#DED9D0"/>
    </linearGradient>
  </defs>
  <rect width="1280" height="800" fill="#E8E5DF"/>
  <!-- Title bar -->
  <rect width="1280" height="40" fill="url(#chrome)"/>
  <line x1="0" y1="0" x2="1280" y2="0" stroke="#ffffff" stroke-width="2"/>
  <line x1="0" y1="0" x2="0" y2="40" stroke="#ffffff" stroke-width="2"/>
  <line x1="0" y1="39" x2="1280" y2="39" stroke="#808080" stroke-width="1"/>
  <circle cx="20" cy="20" r="6" fill="#FF5F57"/>
  <circle cx="40" cy="20" r="6" fill="#FEBC2E"/>
  <circle cx="60" cy="20" r="6" fill="#28C840"/>
  <text x="640" y="26" text-anchor="middle" font-family="'JetBrains Mono', monospace" font-size="13" fill="#2C3040" font-weight="600">&gt; gitty — Commit History</text>
  <!-- Tab bar -->
  <rect y="40" width="1280" height="36" fill="#DED9D0"/>
  <line x1="0" y1="75" x2="1280" y2="75" stroke="#C8C3B8" stroke-width="1"/>
  <text x="63" y="63" text-anchor="middle" font-family="monospace" font-size="11" fill="#686C7C">Changes</text>
  <rect x="116" y="43" width="110" height="30" rx="2" fill="#E8E5DF"/>
  <rect x="116" y="43" width="110" height="3" fill="#4040B0"/>
  <text x="171" y="63" text-anchor="middle" font-family="monospace" font-size="11" fill="#2C3040">History</text>
  <text x="269" y="63" text-anchor="middle" font-family="monospace" font-size="11" fill="#686C7C">Branches</text>
  <!-- Graph area + commit list -->
  <rect x="0" y="76" width="1280" height="700" fill="#E8E5DF"/>
  <!-- Column headers -->
  <rect x="0" y="76" width="1280" height="32" fill="#D4CFC6"/>
  <line x1="0" y1="107" x2="1280" y2="107" stroke="#C8C3B8" stroke-width="1"/>
  <text x="80" y="97" font-family="monospace" font-size="10" fill="#686C7C" font-weight="600">GRAPH</text>
  <text x="180" y="97" font-family="monospace" font-size="10" fill="#686C7C" font-weight="600">MESSAGE</text>
  <text x="840" y="97" font-family="monospace" font-size="10" fill="#686C7C" font-weight="600">AUTHOR</text>
  <text x="1020" y="97" font-family="monospace" font-size="10" fill="#686C7C" font-weight="600">DATE</text>
  <text x="1180" y="97" font-family="monospace" font-size="10" fill="#686C7C" font-weight="600">HASH</text>
  <!-- Commit rows with graph lanes -->
  <!-- Row 1: HEAD commit - main branch -->
  <rect x="0" y="108" width="1280" height="44" fill="#EEE9FF"/>
  <line x1="40" y1="108" x2="40" y2="152" stroke="#4040B0" stroke-width="2"/>
  <circle cx="40" cy="130" r="6" fill="#4040B0"/>
  <text x="170" y="126" font-family="monospace" font-size="11" fill="#2C3040" font-weight="600">chore: update dependencies</text>
  <rect x="170" y="131" width="34" height="14" fill="#4040B0" rx="7"/>
  <text x="187" y="141" text-anchor="middle" font-family="monospace" font-size="8" fill="#ffffff">HEAD</text>
  <rect x="212" y="131" width="38" height="14" fill="#1E8C0A" rx="7"/>
  <text x="231" y="141" text-anchor="middle" font-family="monospace" font-size="8" fill="#ffffff">main</text>
  <text x="840" y="133" font-family="monospace" font-size="10" fill="#4A4E5E">philipp</text>
  <text x="1020" y="133" font-family="monospace" font-size="10" fill="#686C7C">45 minutes ago</text>
  <text x="1180" y="133" font-family="monospace" font-size="10" fill="#686C7C">a3f2b1c</text>
  <!-- Row 2 -->
  <rect x="0" y="152" width="1280" height="44" fill="#E8E5DF"/>
  <line x1="40" y1="152" x2="40" y2="196" stroke="#4040B0" stroke-width="2"/>
  <line x1="70" y1="152" x2="70" y2="196" stroke="#1E8C0A" stroke-width="2"/>
  <circle cx="40" cy="174" r="6" fill="#4040B0"/>
  <text x="170" y="177" font-family="monospace" font-size="11" fill="#2C3040">Merge branch 'feature/auth' into main</text>
  <text x="840" y="177" font-family="monospace" font-size="10" fill="#4A4E5E">philipp</text>
  <text x="1020" y="177" font-family="monospace" font-size="10" fill="#686C7C">2 hours ago</text>
  <text x="1180" y="177" font-family="monospace" font-size="10" fill="#686C7C">b7c3d9e</text>
  <!-- Row 3: feature branch commit -->
  <rect x="0" y="196" width="1280" height="44" fill="#E8E5DF"/>
  <line x1="40" y1="196" x2="40" y2="240" stroke="#4040B0" stroke-width="2"/>
  <line x1="70" y1="196" x2="70" y2="240" stroke="#1E8C0A" stroke-width="2"/>
  <circle cx="70" cy="218" r="6" fill="#1E8C0A"/>
  <text x="170" y="221" font-family="monospace" font-size="11" fill="#2C3040">feat(auth): add JWT token validation middleware</text>
  <rect x="170" y="226" width="52" height="14" fill="#1E8C0A" rx="7"/>
  <text x="196" y="236" text-anchor="middle" font-family="monospace" font-size="8" fill="#ffffff">feature/auth</text>
  <text x="840" y="221" font-family="monospace" font-size="10" fill="#4A4E5E">philipp</text>
  <text x="1020" y="221" font-family="monospace" font-size="10" fill="#686C7C">3 hours ago</text>
  <text x="1180" y="221" font-family="monospace" font-size="10" fill="#686C7C">c8e4f2a</text>
  <!-- Row 4 -->
  <rect x="0" y="240" width="1280" height="44" fill="#E8E5DF"/>
  <line x1="40" y1="240" x2="40" y2="284" stroke="#4040B0" stroke-width="2"/>
  <line x1="70" y1="240" x2="70" y2="284" stroke="#1E8C0A" stroke-width="2"/>
  <circle cx="70" cy="262" r="6" fill="#1E8C0A"/>
  <text x="170" y="265" font-family="monospace" font-size="11" fill="#2C3040">feat(auth): create user session store</text>
  <text x="840" y="265" font-family="monospace" font-size="10" fill="#4A4E5E">philipp</text>
  <text x="1020" y="265" font-family="monospace" font-size="10" fill="#686C7C">4 hours ago</text>
  <text x="1180" y="265" font-family="monospace" font-size="10" fill="#686C7C">d2b1a4c</text>
  <!-- Row 5 -->
  <rect x="0" y="284" width="1280" height="44" fill="#E8E5DF"/>
  <line x1="40" y1="284" x2="40" y2="328" stroke="#4040B0" stroke-width="2"/>
  <line x1="70" y1="284" x2="70" y2="306" stroke="#1E8C0A" stroke-width="2"/>
  <line x1="70" y1="306" x2="40" y2="328" stroke="#1E8C0A" stroke-width="2"/>
  <circle cx="40" cy="306" r="6" fill="#4040B0"/>
  <text x="170" y="309" font-family="monospace" font-size="11" fill="#2C3040">fix(login): correct redirect on failed auth</text>
  <rect x="170" y="314" width="70" height="14" fill="#C08800" rx="7"/>
  <text x="205" y="324" text-anchor="middle" font-family="monospace" font-size="8" fill="#ffffff">bugfix/login</text>
  <text x="840" y="309" font-family="monospace" font-size="10" fill="#4A4E5E">philipp</text>
  <text x="1020" y="309" font-family="monospace" font-size="10" fill="#686C7C">yesterday</text>
  <text x="1180" y="309" font-family="monospace" font-size="10" fill="#686C7C">e5c3b1d</text>
  <!-- Row 6 -->
  <rect x="0" y="328" width="1280" height="44" fill="#E8E5DF"/>
  <line x1="40" y1="328" x2="40" y2="372" stroke="#4040B0" stroke-width="2"/>
  <circle cx="40" cy="350" r="6" fill="#4040B0"/>
  <text x="170" y="353" font-family="monospace" font-size="11" fill="#2C3040">refactor: extract config module</text>
  <text x="840" y="353" font-family="monospace" font-size="10" fill="#4A4E5E">philipp</text>
  <text x="1020" y="353" font-family="monospace" font-size="10" fill="#686C7C">2 days ago</text>
  <text x="1180" y="353" font-family="monospace" font-size="10" fill="#686C7C">f6d4e2b</text>
  <!-- Row 7 -->
  <rect x="0" y="372" width="1280" height="44" fill="#E8E5DF"/>
  <line x1="40" y1="372" x2="40" y2="416" stroke="#4040B0" stroke-width="2"/>
  <circle cx="40" cy="394" r="6" fill="#4040B0"/>
  <text x="170" y="397" font-family="monospace" font-size="11" fill="#2C3040">docs: add API documentation</text>
  <text x="840" y="397" font-family="monospace" font-size="10" fill="#4A4E5E">sarah</text>
  <text x="1020" y="397" font-family="monospace" font-size="10" fill="#686C7C">3 days ago</text>
  <text x="1180" y="397" font-family="monospace" font-size="10" fill="#686C7C">g7e5f3c</text>
  <!-- Row 8 -->
  <rect x="0" y="416" width="1280" height="44" fill="#E8E5DF"/>
  <line x1="40" y1="416" x2="40" y2="460" stroke="#4040B0" stroke-width="2"/>
  <circle cx="40" cy="438" r="6" fill="#4040B0"/>
  <text x="170" y="441" font-family="monospace" font-size="11" fill="#2C3040">test: add unit tests for user service</text>
  <text x="840" y="441" font-family="monospace" font-size="10" fill="#4A4E5E">philipp</text>
  <text x="1020" y="441" font-family="monospace" font-size="10" fill="#686C7C">4 days ago</text>
  <text x="1180" y="441" font-family="monospace" font-size="10" fill="#686C7C">h8f6a4d</text>
  <!-- Row 9 -->
  <rect x="0" y="460" width="1280" height="44" fill="#E8E5DF"/>
  <line x1="40" y1="460" x2="40" y2="504" stroke="#4040B0" stroke-width="2"/>
  <circle cx="40" cy="482" r="6" fill="#4040B0"/>
  <text x="170" y="485" font-family="monospace" font-size="11" fill="#2C3040">feat: implement user profile endpoint</text>
  <text x="840" y="485" font-family="monospace" font-size="10" fill="#4A4E5E">sarah</text>
  <text x="1020" y="485" font-family="monospace" font-size="10" fill="#686C7C">5 days ago</text>
  <text x="1180" y="485" font-family="monospace" font-size="10" fill="#686C7C">i9g7b5e</text>
  <!-- Row selected: commit details at bottom -->
  <line x1="0" y1="610" x2="1280" y2="610" stroke="#C8C3B8" stroke-width="1"/>
  <rect x="0" y="611" width="1280" height="165" fill="#DED9D0"/>
  <text x="20" y="633" font-family="monospace" font-size="12" fill="#4040B0" font-weight="700">chore: update dependencies</text>
  <text x="20" y="653" font-family="monospace" font-size="10" fill="#686C7C">a3f2b1c  •  philipp &lt;philipp@example.com&gt;  •  Thu Feb 19 2026 10:45:00</text>
  <rect x="20" y="664" width="920" height="80" fill="#E8E5DF" rx="2"/>
  <text x="34" y="682" font-family="monospace" font-size="10" fill="#2C3040">Bumps all npm packages to latest minor versions.</text>
  <text x="34" y="700" font-family="monospace" font-size="10" fill="#2C3040">Addresses security advisories in lodash and axios.</text>
  <text x="34" y="718" font-family="monospace" font-size="10" fill="#686C7C">package.json +4 −4  •  package-lock.json +120 −87</text>
  <!-- Status bar -->
  <rect x="0" y="776" width="1280" height="24" fill="#4040B0"/>
  <text x="12" y="792" font-family="monospace" font-size="10" fill="#ffffff">main</text>
  <text x="70" y="792" font-family="monospace" font-size="10" fill="rgba(255,255,255,0.7)">13 commits</text>
  <!-- PLACEHOLDER watermark -->
  <text x="640" y="540" text-anchor="middle" dominant-baseline="middle" font-family="monospace" font-size="72" font-weight="bold" fill="#C8C3B8" opacity="0.20" transform="rotate(-20 640 540)">PLACEHOLDER</text>
</svg>
