<svg xmlns="http://www.w3.org/2000/svg" viewBox="0 0 1280 800" width="1280" height="800">
  <defs>
    <linearGradient id="chrome" x1="0" y1="0" x2="0" y2="1">
      <stop offset="0%" stop-color="#D4CFC6"/>
      <stop offset="100%" stop-color="#DED9D0"/>
    </linearGradient>
  </defs>
  <rect width="1280" height="800" fill="#E8E5DF"/>
  <!-- Title bar -->
  <rect width="1280" height="40" fill="url(#chrome)"/>
  <line x1="0" y1="0" x2="1280" y2="0" stroke="#ffffff" stroke-width="2"/>
  <line x1="0" y1="0" x2="0" y2="40" stroke="#ffffff" stroke-width="2"/>
  <line x1="0" y1="39" x2="1280" y2="39" stroke="#808080" stroke-width="1"/>
  <circle cx="20" cy="20" r="6" fill="#FF5F57"/>
  <circle cx="40" cy="20" r="6" fill="#FEBC2E"/>
  <circle cx="60" cy="20" r="6" fill="#28C840"/>
  <text x="640" y="26" text-anchor="middle" font-family="'JetBrains Mono', monospace" font-size="13" fill="#2C3040" font-weight="600">&gt; gitty — Split Diff View</text>
  <!-- Tab bar -->
  <rect y="40" width="1280" height="36" fill="#DED9D0"/>
  <line x1="0" y1="75" x2="1280" y2="75" stroke="#C8C3B8" stroke-width="1"/>
  <rect x="8" y="43" width="110" height="30" rx="2" fill="#E8E5DF"/>
  <rect x="8" y="43" width="110" height="3" fill="#4040B0"/>
  <text x="63" y="63" text-anchor="middle" font-family="monospace" font-size="11" fill="#2C3040">Changes</text>
  <text x="171" y="63" text-anchor="middle" font-family="monospace" font-size="11" fill="#686C7C">History</text>
  <text x="269" y="63" text-anchor="middle" font-family="monospace" font-size="11" fill="#686C7C">Branches</text>
  <!-- Left sidebar: file list -->
  <rect x="0" y="76" width="200" height="724" fill="#DED9D0"/>
  <line x1="200" y1="76" x2="200" y2="800" stroke="#C8C3B8" stroke-width="1"/>
  <rect x="0" y="76" width="200" height="32" fill="#D4CFC6"/>
  <text x="12" y="97" font-family="monospace" font-size="10" fill="#2C3040" font-weight="700">FILES (5)</text>
  <rect x="0" y="108" width="200" height="28" fill="#4040B0"/>
  <text x="12" y="126" font-family="monospace" font-size="10" fill="#ffffff">M  app.js</text>
  <rect x="0" y="136" width="200" height="28" fill="#DED9D0"/>
  <text x="12" y="154" font-family="monospace" font-size="10" fill="#2C3040">M  index.php</text>
  <rect x="0" y="164" width="200" height="28" fill="#E8E5DF"/>
  <text x="12" y="182" font-family="monospace" font-size="10" fill="#2C3040">M  style.css</text>
  <rect x="0" y="192" width="200" height="28" fill="#DED9D0"/>
  <text x="12" y="210" font-family="monospace" font-size="10" fill="#2C3040">A  auth.php</text>
  <rect x="0" y="220" width="200" height="28" fill="#E8E5DF"/>
  <text x="12" y="238" font-family="monospace" font-size="10" fill="#2C3040">D  legacy.js</text>
  <!-- View mode -->
  <rect x="8" y="265" width="84" height="22" fill="#DED9D0" rx="2" stroke="#C8C3B8" stroke-width="1"/>
  <text x="50" y="280" text-anchor="middle" font-family="monospace" font-size="9" fill="#686C7C">Unified</text>
  <rect x="100" y="265" width="84" height="22" fill="#4040B0" rx="2"/>
  <text x="142" y="280" text-anchor="middle" font-family="monospace" font-size="9" fill="#ffffff">Split</text>
  <!-- Split diff area -->
  <rect x="201" y="76" width="1079" height="724" fill="#E8E5DF"/>
  <!-- Diff header banner -->
  <rect x="201" y="76" width="1079" height="36" fill="#D4CFC6"/>
  <text x="220" y="98" font-family="monospace" font-size="11" fill="#4040B0" font-weight="600">app.js</text>
  <text x="290" y="98" font-family="monospace" font-size="10" fill="#686C7C">+12 −4</text>
  <line x1="201" y1="111" x2="1280" y2="111" stroke="#C8C3B8" stroke-width="1"/>
  <!-- Left side header (BEFORE) -->
  <rect x="201" y="112" width="539" height="24" fill="#DED9D0"/>
  <text x="470" y="128" text-anchor="middle" font-family="monospace" font-size="10" fill="#686C7C" font-weight="600">BEFORE</text>
  <!-- Right side header (AFTER) -->
  <rect x="741" y="112" width="539" height="24" fill="#DED9D0"/>
  <text x="1010" y="128" text-anchor="middle" font-family="monospace" font-size="10" fill="#686C7C" font-weight="600">AFTER</text>
  <!-- Center divider -->
  <line x1="740" y1="112" x2="740" y2="800" stroke="#C8C3B8" stroke-width="2"/>
  <!-- Left side line numbers -->
  <rect x="201" y="136" width="45" height="624" fill="#D4CFC6"/>
  <!-- Right side line numbers -->
  <rect x="741" y="136" width="45" height="624" fill="#D4CFC6"/>
  <!-- Hunk header (both sides) -->
  <rect x="246" y="136" width="494" height="20" fill="#DED9D0"/>
  <text x="265" y="150" font-family="monospace" font-size="10" fill="#686C7C">@@ -140,6 +140,8 @@</text>
  <rect x="786" y="136" width="494" height="20" fill="#DED9D0"/>
  <text x="805" y="150" font-family="monospace" font-size="10" fill="#686C7C">@@ -140,8 +140,10 @@</text>
  <!-- LEFT: before lines -->
  <rect x="246" y="156" width="494" height="20" fill="#E8E5DF"/>
  <text x="222" y="170" text-anchor="middle" font-family="monospace" font-size="9" fill="#686C7C">140</text>
  <text x="254" y="170" font-family="monospace" font-size="10" fill="#2C3040">  const router = express.Router();</text>
  <rect x="246" y="176" width="494" height="20" fill="rgba(212,57,64,0.15)"/>
  <text x="222" y="190" text-anchor="middle" font-family="monospace" font-size="9" fill="#686C7C">141</text>
  <text x="254" y="190" font-family="monospace" font-size="10" fill="#D91440">- router.get('/api/v1/user', (req, res) =&gt; {</text>
  <rect x="246" y="196" width="494" height="20" fill="rgba(212,57,64,0.15)"/>
  <text x="222" y="210" text-anchor="middle" font-family="monospace" font-size="9" fill="#686C7C">142</text>
  <text x="254" y="210" font-family="monospace" font-size="10" fill="#D91440">-   const id = req.params.id;</text>
  <rect x="246" y="216" width="494" height="20" fill="#E8E5DF"/>
  <text x="222" y="230" text-anchor="middle" font-family="monospace" font-size="9" fill="#686C7C">143</text>
  <text x="254" y="230" font-family="monospace" font-size="10" fill="#2C3040">    try {</text>
  <rect x="246" y="236" width="494" height="20" fill="#E8E5DF"/>
  <text x="222" y="250" text-anchor="middle" font-family="monospace" font-size="9" fill="#686C7C">144</text>
  <text x="254" y="250" font-family="monospace" font-size="10" fill="#2C3040">      const user = await db.users.findById(id);</text>
  <rect x="246" y="256" width="494" height="20" fill="#E8E5DF"/>
  <text x="222" y="270" text-anchor="middle" font-family="monospace" font-size="9" fill="#686C7C">145</text>
  <text x="254" y="270" font-family="monospace" font-size="10" fill="#2C3040">      res.json({ user });</text>
  <!-- RIGHT: after lines -->
  <rect x="786" y="156" width="494" height="20" fill="#E8E5DF"/>
  <text x="762" y="170" text-anchor="middle" font-family="monospace" font-size="9" fill="#686C7C">140</text>
  <text x="794" y="170" font-family="monospace" font-size="10" fill="#2C3040">  const router = express.Router();</text>
  <rect x="786" y="176" width="494" height="20" fill="rgba(30,140,10,0.15)"/>
  <text x="762" y="190" text-anchor="middle" font-family="monospace" font-size="9" fill="#686C7C">141</text>
  <text x="794" y="190" font-family="monospace" font-size="10" fill="#1E8C0A">+ router.get('/api/v2/user', async (req, res) =&gt; {</text>
  <rect x="786" y="196" width="494" height="20" fill="rgba(30,140,10,0.15)"/>
  <text x="762" y="210" text-anchor="middle" font-family="monospace" font-size="9" fill="#686C7C">142</text>
  <text x="794" y="210" font-family="monospace" font-size="10" fill="#1E8C0A">+   const { id, token } = req.headers;</text>
  <rect x="786" y="216" width="494" height="20" fill="rgba(30,140,10,0.15)"/>
  <text x="762" y="230" text-anchor="middle" font-family="monospace" font-size="9" fill="#686C7C">143</text>
  <text x="794" y="230" font-family="monospace" font-size="10" fill="#1E8C0A">+   if (!token) return res.status(401);</text>
  <rect x="786" y="236" width="494" height="20" fill="#E8E5DF"/>
  <text x="762" y="250" text-anchor="middle" font-family="monospace" font-size="9" fill="#686C7C">144</text>
  <text x="794" y="250" font-family="monospace" font-size="10" fill="#2C3040">    try {</text>
  <rect x="786" y="256" width="494" height="20" fill="#E8E5DF"/>
  <text x="762" y="270" text-anchor="middle" font-family="monospace" font-size="9" fill="#686C7C">145</text>
  <text x="794" y="270" font-family="monospace" font-size="10" fill="#2C3040">      const user = await db.users.findById(id);</text>
  <!-- Status bar -->
  <rect x="0" y="776" width="1280" height="24" fill="#4040B0"/>
  <text x="12" y="792" font-family="monospace" font-size="10" fill="#ffffff">main</text>
  <text x="70" y="792" font-family="monospace" font-size="10" fill="rgba(255,255,255,0.7)">↑2 ↓0</text>
  <text x="1200" y="792" text-anchor="end" font-family="monospace" font-size="10" fill="rgba(255,255,255,0.7)">split diff</text>
  <!-- PLACEHOLDER watermark -->
  <text x="740" y="530" text-anchor="middle" dominant-baseline="middle" font-family="monospace" font-size="72" font-weight="bold" fill="#C8C3B8" opacity="0.20" transform="rotate(-20 740 530)">PLACEHOLDER</text>
</svg>
