<svg xmlns="http://www.w3.org/2000/svg" viewBox="0 0 1280 800" width="1280" height="800">
  <defs>
    <linearGradient id="chrome" x1="0" y1="0" x2="0" y2="1">
      <stop offset="0%" stop-color="#D4CFC6"/>
      <stop offset="100%" stop-color="#DED9D0"/>
    </linearGradient>
  </defs>
  <rect width="1280" height="800" fill="#E8E5DF"/>
  <!-- Title bar -->
  <rect width="1280" height="40" fill="url(#chrome)"/>
  <line x1="0" y1="0" x2="1280" y2="0" stroke="#ffffff" stroke-width="2"/>
  <line x1="0" y1="0" x2="0" y2="40" stroke="#ffffff" stroke-width="2"/>
  <line x1="0" y1="39" x2="1280" y2="39" stroke="#808080" stroke-width="1"/>
  <circle cx="20" cy="20" r="6" fill="#FF5F57"/>
  <circle cx="40" cy="20" r="6" fill="#FEBC2E"/>
  <circle cx="60" cy="20" r="6" fill="#28C840"/>
  <text x="640" y="26" text-anchor="middle" font-family="'JetBrains Mono', monospace" font-size="13" fill="#2C3040" font-weight="600">&gt; gitty — Unified Diff View</text>
  <!-- Tab bar -->
  <rect y="40" width="1280" height="36" fill="#DED9D0"/>
  <line x1="0" y1="75" x2="1280" y2="75" stroke="#C8C3B8" stroke-width="1"/>
  <rect x="8" y="43" width="110" height="30" rx="2" fill="#E8E5DF"/>
  <rect x="8" y="43" width="110" height="3" fill="#4040B0"/>
  <text x="63" y="63" text-anchor="middle" font-family="monospace" font-size="11" fill="#2C3040">Changes</text>
  <text x="171" y="63" text-anchor="middle" font-family="monospace" font-size="11" fill="#686C7C">History</text>
  <text x="269" y="63" text-anchor="middle" font-family="monospace" font-size="11" fill="#686C7C">Branches</text>
  <!-- Left sidebar: file tree -->
  <rect x="0" y="76" width="260" height="724" fill="#DED9D0"/>
  <line x1="260" y1="76" x2="260" y2="800" stroke="#C8C3B8" stroke-width="1"/>
  <rect x="0" y="76" width="260" height="32" fill="#D4CFC6"/>
  <text x="12" y="97" font-family="monospace" font-size="11" fill="#2C3040" font-weight="700">CHANGED FILES (5)</text>
  <!-- File rows -->
  <rect x="0" y="108" width="260" height="32" fill="#4040B0"/>
  <text x="22" y="125" font-family="monospace" font-size="11" fill="#ffffff" font-weight="600">M  app.js</text>
  <text x="250" y="125" text-anchor="end" font-family="monospace" font-size="10" fill="rgba(255,255,255,0.8)">+12−4</text>
  <rect x="0" y="140" width="260" height="32" fill="#DED9D0"/>
  <text x="22" y="157" font-family="monospace" font-size="11" fill="#2C3040">M  index.php</text>
  <text x="250" y="157" text-anchor="end" font-family="monospace" font-size="10" fill="#686C7C">+3−1</text>
  <rect x="0" y="172" width="260" height="32" fill="#E8E5DF"/>
  <text x="22" y="189" font-family="monospace" font-size="11" fill="#2C3040">M  style.css</text>
  <text x="250" y="189" text-anchor="end" font-family="monospace" font-size="10" fill="#686C7C">+8−2</text>
  <rect x="0" y="204" width="260" height="32" fill="#DED9D0"/>
  <text x="22" y="221" font-family="monospace" font-size="11" fill="#2C3040">A  auth.php</text>
  <text x="250" y="221" text-anchor="end" font-family="monospace" font-size="10" fill="#1E8C0A">+45</text>
  <rect x="0" y="236" width="260" height="32" fill="#E8E5DF"/>
  <text x="22" y="253" font-family="monospace" font-size="11" fill="#2C3040">D  legacy.js</text>
  <text x="250" y="253" text-anchor="end" font-family="monospace" font-size="10" fill="#D91440">−88</text>
  <!-- View mode buttons -->
  <rect x="8" y="288" width="114" height="26" fill="#4040B0" rx="2"/>
  <text x="65" y="305" text-anchor="middle" font-family="monospace" font-size="10" fill="#ffffff">Unified</text>
  <rect x="130" y="288" width="114" height="26" fill="none" rx="2"/>
  <rect x="130" y="288" width="114" height="26" rx="2" fill="#DED9D0" stroke="#C8C3B8" stroke-width="1"/>
  <text x="187" y="305" text-anchor="middle" font-family="monospace" font-size="10" fill="#686C7C">Split</text>
  <!-- Right: unified diff -->
  <rect x="261" y="76" width="1019" height="724" fill="#E8E5DF"/>
  <!-- Diff file header -->
  <rect x="261" y="76" width="1019" height="40" fill="#D4CFC6"/>
  <text x="280" y="101" font-family="monospace" font-size="12" fill="#4040B0" font-weight="600">diff --git a/app.js b/app.js</text>
  <line x1="261" y1="115" x2="1280" y2="115" stroke="#C8C3B8" stroke-width="1"/>
  <!-- Hunk header -->
  <rect x="261" y="116" width="1019" height="22" fill="#DED9D0"/>
  <text x="280" y="131" font-family="monospace" font-size="10" fill="#686C7C">@@ -140,8 +140,12 @@ router setup</text>
  <!-- Line number gutter -->
  <rect x="261" y="138" width="80" height="622" fill="#D4CFC6"/>
  <!-- Diff lines -->
  <rect x="341" y="138" width="939" height="20" fill="#E8E5DF"/>
  <text x="280" y="152" font-family="monospace" font-size="10" fill="#686C7C" text-anchor="middle">140</text>
  <text x="352" y="152" font-family="monospace" font-size="11" fill="#2C3040">  const router = express.Router();</text>
  <rect x="341" y="158" width="939" height="20" fill="#E8E5DF"/>
  <text x="280" y="172" font-family="monospace" font-size="10" fill="#686C7C" text-anchor="middle">141</text>
  <text x="352" y="172" font-family="monospace" font-size="11" fill="#2C3040">  </text>
  <rect x="341" y="178" width="939" height="20" fill="rgba(212,57,64,0.12)"/>
  <text x="280" y="192" font-family="monospace" font-size="10" fill="#686C7C" text-anchor="middle">142</text>
  <text x="352" y="192" font-family="monospace" font-size="11" fill="#D91440">- router.get('/api/v1/user', async (req, res) =&gt; {</text>
  <rect x="341" y="198" width="939" height="20" fill="rgba(212,57,64,0.12)"/>
  <text x="280" y="212" font-family="monospace" font-size="10" fill="#686C7C" text-anchor="middle">143</text>
  <text x="352" y="212" font-family="monospace" font-size="11" fill="#D91440">-   const id = req.params.id;</text>
  <rect x="341" y="218" width="939" height="20" fill="rgba(30,140,10,0.12)"/>
  <text x="280" y="232" font-family="monospace" font-size="10" fill="#686C7C" text-anchor="middle">142</text>
  <text x="352" y="232" font-family="monospace" font-size="11" fill="#1E8C0A">+ router.get('/api/v2/user', async (req, res) =&gt; {</text>
  <rect x="341" y="238" width="939" height="20" fill="rgba(30,140,10,0.12)"/>
  <text x="280" y="252" font-family="monospace" font-size="10" fill="#686C7C" text-anchor="middle">143</text>
  <text x="352" y="252" font-family="monospace" font-size="11" fill="#1E8C0A">+   const { id, token } = req.headers;</text>
  <rect x="341" y="258" width="939" height="20" fill="rgba(30,140,10,0.12)"/>
  <text x="280" y="272" font-family="monospace" font-size="10" fill="#686C7C" text-anchor="middle">144</text>
  <text x="352" y="272" font-family="monospace" font-size="11" fill="#1E8C0A">+   if (!token) return res.status(401).json({ error: 'Unauthorized' });</text>
  <rect x="341" y="278" width="939" height="20" fill="#E8E5DF"/>
  <text x="280" y="292" font-family="monospace" font-size="10" fill="#686C7C" text-anchor="middle">145</text>
  <text x="352" y="292" font-family="monospace" font-size="11" fill="#2C3040">    try {</text>
  <rect x="341" y="298" width="939" height="20" fill="#E8E5DF"/>
  <text x="280" y="312" font-family="monospace" font-size="10" fill="#686C7C" text-anchor="middle">146</text>
  <text x="352" y="312" font-family="monospace" font-size="11" fill="#2C3040">      const user = await db.users.findById(id);</text>
  <rect x="341" y="318" width="939" height="20" fill="#E8E5DF"/>
  <text x="280" y="332" font-family="monospace" font-size="10" fill="#686C7C" text-anchor="middle">147</text>
  <text x="352" y="332" font-family="monospace" font-size="11" fill="#2C3040">      res.json({ user, version: 'v2' });</text>
  <rect x="341" y="338" width="939" height="20" fill="#E8E5DF"/>
  <text x="280" y="352" font-family="monospace" font-size="10" fill="#686C7C" text-anchor="middle">148</text>
  <text x="352" y="352" font-family="monospace" font-size="11" fill="#2C3040">    } catch (err) {</text>
  <rect x="341" y="358" width="939" height="20" fill="#E8E5DF"/>
  <text x="280" y="372" font-family="monospace" font-size="10" fill="#686C7C" text-anchor="middle">149</text>
  <text x="352" y="372" font-family="monospace" font-size="11" fill="#2C3040">      next(err);</text>
  <rect x="341" y="378" width="939" height="20" fill="#E8E5DF"/>
  <text x="280" y="392" font-family="monospace" font-size="10" fill="#686C7C" text-anchor="middle">150</text>
  <text x="352" y="392" font-family="monospace" font-size="11" fill="#2C3040">    }</text>
  <rect x="341" y="398" width="939" height="20" fill="#E8E5DF"/>
  <text x="280" y="412" font-family="monospace" font-size="10" fill="#686C7C" text-anchor="middle">151</text>
  <text x="352" y="412" font-family="monospace" font-size="11" fill="#2C3040">  });</text>
  <!-- Status bar -->
  <rect x="0" y="776" width="1280" height="24" fill="#4040B0"/>
  <text x="12" y="792" font-family="monospace" font-size="10" fill="#ffffff">main</text>
  <text x="70" y="792" font-family="monospace" font-size="10" fill="rgba(255,255,255,0.7)">↑2 ↓0</text>
  <text x="1200" y="792" text-anchor="end" font-family="monospace" font-size="10" fill="rgba(255,255,255,0.7)">unified diff</text>
  <!-- PLACEHOLDER watermark -->
  <text x="790" y="480" text-anchor="middle" dominant-baseline="middle" font-family="monospace" font-size="72" font-weight="bold" fill="#C8C3B8" opacity="0.20" transform="rotate(-20 790 480)">PLACEHOLDER</text>
</svg>
