<svg xmlns="http://www.w3.org/2000/svg" viewBox="0 0 1280 800" width="1280" height="800">
  <defs>
    <linearGradient id="chrome" x1="0" y1="0" x2="0" y2="1">
      <stop offset="0%" stop-color="#D4CFC6"/>
      <stop offset="100%" stop-color="#DED9D0"/>
    </linearGradient>
  </defs>
  <!-- App background -->
  <rect width="1280" height="800" fill="#E8E5DF"/>
  <!-- Title bar -->
  <rect width="1280" height="40" fill="url(#chrome)"/>
  <line x1="0" y1="0" x2="1280" y2="0" stroke="#ffffff" stroke-width="2"/>
  <line x1="0" y1="0" x2="0" y2="40" stroke="#ffffff" stroke-width="2"/>
  <line x1="0" y1="39" x2="1280" y2="39" stroke="#808080" stroke-width="1"/>
  <!-- Traffic lights -->
  <circle cx="20" cy="20" r="6" fill="#FF5F57"/>
  <circle cx="40" cy="20" r="6" fill="#FEBC2E"/>
  <circle cx="60" cy="20" r="6" fill="#28C840"/>
  <!-- Title -->
  <text x="640" y="26" text-anchor="middle" font-family="'JetBrains Mono', monospace" font-size="13" fill="#2C3040" font-weight="600">&gt; gitty — Staging Panel</text>
  <!-- Tab bar -->
  <rect y="40" width="1280" height="36" fill="#DED9D0"/>
  <line x1="0" y1="75" x2="1280" y2="75" stroke="#C8C3B8" stroke-width="1"/>
  <rect x="8" y="43" width="110" height="30" rx="2" fill="#E8E5DF"/>
  <rect x="8" y="43" width="110" height="3" fill="#4040B0"/>
  <text x="63" y="63" text-anchor="middle" font-family="monospace" font-size="11" fill="#2C3040">Changes</text>
  <rect x="126" y="45" width="90" height="26" rx="2" fill="none"/>
  <text x="171" y="63" text-anchor="middle" font-family="monospace" font-size="11" fill="#686C7C">History</text>
  <rect x="224" y="45" width="90" height="26" rx="2" fill="none"/>
  <text x="269" y="63" text-anchor="middle" font-family="monospace" font-size="11" fill="#686C7C">Branches</text>
  <!-- Left panel: file list -->
  <rect x="0" y="76" width="300" height="724" fill="#DED9D0"/>
  <line x1="300" y1="76" x2="300" y2="800" stroke="#C8C3B8" stroke-width="1"/>
  <!-- Unstaged section header -->
  <rect x="0" y="76" width="300" height="32" fill="#D4CFC6"/>
  <text x="12" y="97" font-family="monospace" font-size="11" fill="#2C3040" font-weight="700">UNSTAGED (3)</text>
  <text x="280" y="97" text-anchor="end" font-family="monospace" font-size="11" fill="#4040B0">Stage All</text>
  <!-- Unstaged files -->
  <rect x="0" y="108" width="300" height="32" fill="#E8E5DF"/>
  <rect x="8" y="118" width="8" height="12" fill="#D91440" rx="1"/>
  <text x="22" y="129" font-family="monospace" font-size="11" fill="#2C3040">M</text>
  <text x="35" y="129" font-family="monospace" font-size="11" fill="#2C3040">app.js</text>
  <text x="290" y="129" text-anchor="end" font-family="monospace" font-size="10" fill="#4040B0">+</text>
  <rect x="0" y="140" width="300" height="32" fill="#DED9D0"/>
  <text x="22" y="161" font-family="monospace" font-size="11" fill="#2C3040">M</text>
  <text x="35" y="161" font-family="monospace" font-size="11" fill="#2C3040">README.md</text>
  <text x="290" y="161" text-anchor="end" font-family="monospace" font-size="10" fill="#4040B0">+</text>
  <rect x="0" y="172" width="300" height="32" fill="#E8E5DF"/>
  <text x="22" y="193" font-family="monospace" font-size="11" fill="#2C3040">M</text>
  <text x="35" y="193" font-family="monospace" font-size="11" fill="#2C3040">style.css</text>
  <text x="290" y="193" text-anchor="end" font-family="monospace" font-size="10" fill="#4040B0">+</text>
  <!-- Staged section header -->
  <rect x="0" y="212" width="300" height="32" fill="#D4CFC6"/>
  <text x="12" y="233" font-family="monospace" font-size="11" fill="#1E8C0A" font-weight="700">STAGED (2)</text>
  <text x="280" y="233" text-anchor="end" font-family="monospace" font-size="11" fill="#D91440">Unstage All</text>
  <!-- Staged files -->
  <rect x="0" y="244" width="300" height="32" fill="#E8E5DF"/>
  <rect x="8" y="254" width="8" height="12" fill="#1E8C0A" rx="1"/>
  <text x="22" y="265" font-family="monospace" font-size="11" fill="#2C3040">M</text>
  <text x="35" y="265" font-family="monospace" font-size="11" fill="#2C3040">index.php</text>
  <text x="290" y="265" text-anchor="end" font-family="monospace" font-size="10" fill="#D91440">−</text>
  <rect x="0" y="276" width="300" height="32" fill="#DED9D0"/>
  <text x="22" y="297" font-family="monospace" font-size="11" fill="#2C3040">M</text>
  <text x="35" y="297" font-family="monospace" font-size="11" fill="#2C3040">config.json</text>
  <text x="290" y="297" text-anchor="end" font-family="monospace" font-size="10" fill="#D91440">−</text>
  <!-- Untracked section header -->
  <rect x="0" y="316" width="300" height="32" fill="#D4CFC6"/>
  <text x="12" y="337" font-family="monospace" font-size="11" fill="#C08800" font-weight="700">UNTRACKED (2)</text>
  <!-- Untracked files -->
  <rect x="0" y="348" width="300" height="32" fill="#E8E5DF"/>
  <text x="22" y="369" font-family="monospace" font-size="11" fill="#686C7C">?</text>
  <text x="35" y="369" font-family="monospace" font-size="11" fill="#686C7C">.env.example</text>
  <rect x="0" y="380" width="300" height="32" fill="#DED9D0"/>
  <text x="22" y="401" font-family="monospace" font-size="11" fill="#686C7C">?</text>
  <text x="35" y="401" font-family="monospace" font-size="11" fill="#686C7C">TODO.md</text>
  <!-- Right panel: diff preview -->
  <rect x="301" y="76" width="979" height="724" fill="#E8E5DF"/>
  <!-- Diff header -->
  <rect x="301" y="76" width="979" height="40" fill="#DED9D0"/>
  <line x1="301" y1="115" x2="1280" y2="115" stroke="#C8C3B8" stroke-width="1"/>
  <text x="320" y="101" font-family="monospace" font-size="12" fill="#4040B0" font-weight="600">app.js</text>
  <text x="380" y="101" font-family="monospace" font-size="11" fill="#686C7C">+12 −4 lines</text>
  <!-- Diff content -->
  <rect x="301" y="116" width="50" height="664" fill="#D4CFC6"/>
  <!-- Line numbers -->
  <text x="330" y="138" text-anchor="middle" font-family="monospace" font-size="10" fill="#686C7C">142</text>
  <text x="330" y="158" text-anchor="middle" font-family="monospace" font-size="10" fill="#686C7C">143</text>
  <text x="330" y="178" text-anchor="middle" font-family="monospace" font-size="10" fill="#686C7C">144</text>
  <text x="330" y="198" text-anchor="middle" font-family="monospace" font-size="10" fill="#686C7C">145</text>
  <text x="330" y="218" text-anchor="middle" font-family="monospace" font-size="10" fill="#686C7C">146</text>
  <!-- Diff lines -->
  <rect x="351" y="120" width="929" height="20" fill="#E8E5DF"/>
  <text x="360" y="134" font-family="monospace" font-size="11" fill="#2C3040">  const router = express.Router();</text>
  <rect x="351" y="140" width="929" height="20" fill="#E8E5DF"/>
  <text x="360" y="154" font-family="monospace" font-size="11" fill="#2C3040">  </text>
  <rect x="351" y="160" width="929" height="20" fill="rgba(212,57,64,0.15)"/>
  <text x="360" y="174" font-family="monospace" font-size="11" fill="#D91440">- router.get('/api/v1/user', async (req, res) =&gt; {</text>
  <rect x="351" y="180" width="929" height="20" fill="rgba(30,140,10,0.15)"/>
  <text x="360" y="194" font-family="monospace" font-size="11" fill="#1E8C0A">+ router.get('/api/v2/user', async (req, res) =&gt; {</text>
  <rect x="351" y="200" width="929" height="20" fill="rgba(30,140,10,0.15)"/>
  <text x="360" y="214" font-family="monospace" font-size="11" fill="#1E8C0A">+   const { id, token } = req.headers;</text>
  <rect x="351" y="220" width="929" height="20" fill="#E8E5DF"/>
  <text x="360" y="234" font-family="monospace" font-size="11" fill="#2C3040">    try {</text>
  <rect x="351" y="240" width="929" height="20" fill="#E8E5DF"/>
  <text x="360" y="254" font-family="monospace" font-size="11" fill="#2C3040">      const user = await db.users.findById(id);</text>
  <!-- Status bar -->
  <rect x="0" y="776" width="1280" height="24" fill="#4040B0"/>
  <text x="12" y="792" font-family="monospace" font-size="10" fill="#ffffff">main</text>
  <text x="70" y="792" font-family="monospace" font-size="10" fill="rgba(255,255,255,0.7)">↑2 ↓0</text>
  <text x="1200" y="792" text-anchor="end" font-family="monospace" font-size="10" fill="rgba(255,255,255,0.7)">utf-8</text>
  <!-- PLACEHOLDER watermark -->
  <text x="790" y="460" text-anchor="middle" dominant-baseline="middle" font-family="monospace" font-size="72" font-weight="bold" fill="#C8C3B8" opacity="0.20" transform="rotate(-20 790 460)">PLACEHOLDER</text>
</svg>
